PathFileType	4	(X/Y/Z)	C:/Users/opensim2020/Desktop/walking_exp_matlab/subject06_walking20_straight_02.trc																																																																																																																															
DataRate	CameraRate	NumFrames	NumMarkers	Units	OrigDataRate	OrigDataStartFrame	OrigNumFrames																																																																																																																											
100	100	4	43	mm	100	1242	105																																																																																																																											
Frame#	Time	LFHD			RFHD			LBHD			RBHD			C7			T10			CLAV			STRN			RBAK			LSHO			LUPA			LELB			LFRM			LWRA			LWRB			LFIN			RSHO			RUPA			RELB			RFRM			RWRA			RWRB			RFIN			LASI			RASI			LPSI			RPSI			LTHI			LKNE			LTIB			LANK			LHEE			LTOE			RTHI			RKNE			RTIB			RANK			RHEE			RTOE			*39			*40			*41			*42		
		X1	Y1	Z1	X2	Y2	Z2	X3	Y3	Z3	X4	Y4	Z4	X5	Y5	Z5	X6	Y6	Z6	X7	Y7	Z7	X8	Y8	Z8	X9	Y9	Z9	X10	Y10	Z10	X11	Y11	Z11	X12	Y12	Z12	X13	Y13	Z13	X14	Y14	Z14	X15	Y15	Z15	X16	Y16	Z16	X17	Y17	Z17	X18	Y18	Z18	X19	Y19	Z19	X20	Y20	Z20	X21	Y21	Z21	X22	Y22	Z22	X23	Y23	Z23	X24	Y24	Z24	X25	Y25	Z25	X26	Y26	Z26	X27	Y27	Z27	X28	Y28	Z28	X29	Y29	Z29	X30	Y30	Z30	X31	Y31	Z31	X32	Y32	Z32	X33	Y33	Z33	X34	Y34	Z34	X35	Y35	Z35	X36	Y36	Z36	X37	Y37	Z37	X38	Y38	Z38	X39	Y39	Z39	X40	Y40	Z40	X41	Y41	Z41	X42	Y42	Z42	X43	Y43	Z43
																																																																																																																																		
1	0	-1122.77417	1664.36194	-1475.35657	-1117.83228	1649.36267	-1344.25378	-1256.91199	1612.44238	-1471.74719	-1250.7655	1602.98022	-1343.66077	-1257.03967	1451.66943	-1415.78662	-1301.57507	1126.29297	-1413.97095	-1148.29626	1372.83582	-1422.62585	-1114.9519	1195.39539	-1432.71033	-1328.32007	1282.86609	-1332.44409	-1216.08655	1407.19568	-1580.3175	-1244.82947	1207.80505	-1651.87524	-1263.39404	1096.33813	-1663.26331	-1251.20605	947.15186	-1691.41296	-1190.50098	828.89307	-1661.45044	-1256.42688	828.07733	-1689.73352	-1218.44958	745.32239	-1698.37952	-1185.49268	1405.7937	-1259.43909	-1223.11572	1211.65063	-1165.29907	-1211.35254	1091.16748	-1151.82532	-1161.54028	983.33856	-1143.98657	-1061.80945	878.49829	-1194.42432	-1107.53467	857.43115	-1149.81812	-1045.22229	801.18622	-1158.28784	-1132.68445	962.30725	-1525.2854	-1134.67566	961.2392	-1308.21191	-1290.96436	992.12994	-1501.06921	-1285.12524	994.15143	-1332.73096	-1120.7937	665.72839	-1604.06152	-1054.96936	515.89716	-1585.35693	-1131.36865	275.15045	-1584.99695	-1165.96777	105.22703	-1552.91956	-1201.55811	91.38305	-1502.27612	-1031.69495	59.8579	-1571.67957	-1207.42749	624.59241	-1280.74951	-1213.60657	500.57843	-1314.39514	-1305.79553	248.6107	-1332.21863	-1364.90491	74.44704	-1384.12268	-1411.62427	53.02229	-1426.51782	-1218.45898	40.22024	-1392.31299	-1219.85767	1702.57959	-1410.93872	NaN	NaN	NaN	NaN	NaN	NaN	NaN	NaN	NaN
2	0.01	-1109.22681	1662.39673	-1477.06897	-1104.28711	1647.57751	-1345.89099	-1243.30151	1610.37659	-1473.55664	-1237.28223	1601.08276	-1345.40625	-1243.44446	1449.80969	-1417.54065	-1288.28979	1124.46777	-1415.46594	-1134.76782	1370.81738	-1423.82019	-1101.60596	1193.34668	-1433.43274	-1315.19055	1281.33228	-1334.04382	-1201.64124	1404.92639	-1581.98108	-1231.95569	1205.50549	-1652.83289	-1252.23218	1094.40503	-1663.6958	-1244.90649	944.93518	-1691.46826	-1189.3606	824.19965	-1660.8927	-1254.85999	826.19171	-1689.99829	-1220.74353	741.64661	-1697.85095	-1172.52051	1404.0708	-1260.89038	-1209.39417	1210.0116	-1166.51257	-1196.78711	1089.87805	-1152.70081	-1144.56482	983.46613	-1145.06482	-1041.99512	881.77679	-1196.04749	-1087.13562	859.17285	-1151.52393	-1023.16449	804.88141	-1160.10022	-1118.61206	960.38373	-1525.58044	-1122.78479	959.21082	-1308.4502	-1277.19556	990.06305	-1502.70447	-1272.75085	992.14075	-1334.35828	-1105.1676	664.37671	-1605.80005	-1038.19519	515.28162	-1586.34033	-1101.69922	270.20557	-1587.05701	-1126.50403	98.48669	-1555.28503	-1161.90491	82.78685	-1505.15051	-989.80573	60.78761	-1572.41589	-1198.21729	622.73303	-1281.80688	-1205.93372	498.69473	-1314.85266	-1301.97961	247.94492	-1332.97485	-1363.8761	74.73922	-1384.66357	-1411.19434	53.79234	-1426.88245	-1218.0011	39.80964	-1392.28137	-1206.34436	1700.62903	-1412.78259	NaN	NaN	NaN	NaN	NaN	NaN	NaN	NaN	NaN
3	0.02	-1095.63171	1660.24268	-1478.73413	-1090.82129	1645.6571	-1347.51355	-1229.66016	1608.14319	-1475.27759	-1223.77222	1599.03381	-1347.16394	-1229.77075	1447.77319	-1419.35217	-1274.91528	1122.50159	-1416.94739	-1121.03857	1368.69092	-1425.08386	-1088.15942	1191.14624	-1434.24524	-1302.03992	1279.57373	-1335.70654	-1187.11206	1402.4613	-1583.65479	-1219.08752	1203.02942	-1653.71057	-1241.1593	1092.26428	-1663.98816	-1239.07825	943.54718	-1692.42236	-1187.55823	820.07599	-1660.31396	-1252.90857	824.69177	-1690.48999	-1222.41064	738.43762	-1697.33484	-1159.49146	1402.19214	-1262.41333	-1195.56213	1208.14575	-1167.73706	-1182.24731	1088.43909	-1153.59729	-1127.69104	983.44391	-1146.15601	-1022.63702	884.77069	-1197.54175	-1067.13879	860.83179	-1153.10352	-1001.8584	808.50372	-1161.70679	-1104.54492	958.29163	-1525.93445	-1110.37512	956.8634	-1308.68286	-1263.44763	987.84503	-1504.35889	-1260.22339	990.02838	-1335.97327	-1090.47217	662.7027	-1606.98438	-1022.15637	514.23676	-1587.41931	-1072.43774	265.82553	-1589.47803	-1086.85669	92.64225	-1557.66272	-1122.26892	75.26082	-1508.05334	-947.77789	62.34583	-1572.07019	-1188.73022	620.79938	-1282.88074	-1198.45447	496.74133	-1315.36926	-1298.49805	247.43074	-1333.5	-1363.2771	75.15598	-1384.99536	-1410.85547	54.6474	-1427.22607	-1217.80737	39.24157	-1392.15894	-1192.84888	1698.54004	-1414.67322	NaN	NaN	NaN	NaN	NaN	NaN	NaN	NaN	NaN
4	0.03	-1081.94629	1657.96704	-1480.41589	-1077.40112	1643.57153	-1349.12317	-1215.98621	1605.78687	-1477.06567	-1210.10608	1596.85095	-1348.87634	-1216.05737	1445.56714	-1421.2074	-1261.52026	1120.32007	-1418.35913	-1107.30103	1366.43787	-1426.36719	-1074.5553	1188.80432	-1435.02441	-1288.77429	1277.65417	-1337.41003	-1172.47302	1399.84595	-1585.33862	-1206.32556	1200.54004	-1654.67639	-1230.2439	1090.23047	-1664.43494	-1231.46838	940.50305	-1691.26843	-1185.69788	816.17261	-1659.99084	-1250.08472	823.39618	-1690.95667	-1223.29761	735.77637	-1696.86072	-1146.36133	1400.15967	-1263.89014	-1181.66602	1206.11084	-1168.94153	-1167.73303	1086.87671	-1154.52783	-1111.09705	983.26996	-1147.24084	-1003.69818	887.50128	-1199.08154	-1047.56812	862.35968	-1154.71045	-980.75165	811.67157	-1163.46484	-1090.5365	956.15924	-1526.38965	-1098.2865	954.70245	-1309.17358	-1249.58545	985.53131	-1505.9751	-1247.50537	987.74945	-1337.57739	-1076.07837	660.63641	-1608.26135	-1006.78259	512.78186	-1588.3905	-1042.92993	261.71365	-1591.64868	-1047.22668	87.71552	-1559.80029	-1082.69031	68.82328	-1511.08911	-906.61285	64.48657	-1571.32092	-1179.09631	618.73859	-1283.88782	-1190.95313	494.75183	-1315.75513	-1295.0481	247.02325	-1333.99048	-1362.745	75.77331	-1385.2915	-1410.55359	55.72243	-1427.58813	-1217.25928	38.75943	-1391.6593	-1179.25317	1696.23779	-1416.46069	NaN	NaN	NaN	NaN	NaN	NaN	NaN	NaN	NaN
